<?xml version="1.0" encoding="UTF-8"?>
<svg id="Layer_1" xmlns="http://www.w3.org/2000/svg" version="1.1" viewBox="0 0 100 100">
  <!-- Generator: Adobe Illustrator 30.4.0, SVG Export Plug-In . SVG Version: 2.1.4 Build 226)  -->
  <defs>
    <style>
      .st0 {
        fill: #57585a;
      }

      .st1 {
        fill-rule: evenodd;
      }

      .st1, .st2, .st3 {
        fill: #fff;
      }

      .st4 {
        fill: #b24d60;
      }

      .st5 {
        fill: #282828;
      }

      .st3 {
        isolation: isolate;
        opacity: .1;
      }
    </style>
  </defs>
  <path class="st4" d="M83.2,30.5c-6.7-11.4-19.1-18.9-33.1-18.9-21.2,0-38.5,17.3-38.5,38.5,0,9.9,3.7,19,9.9,25.8h-.1c7,7.8,17.3,12.7,28.6,12.7,21.2,0,38.5-17.3,38.5-38.5.1-7.1-1.9-13.8-5.3-19.6Z"/>
  <path class="st0" d="M88.3,21c-.3-.4-.7-.9-1-1.3,0,0,0-.1-.1-.1h0c-4.3-5.3-9.8-9.8-16.3-12.9h0c-.7-.3-1.4-.7-2.2-1-.2-.1-.5-.2-.7-.3-.5-.2-1-.4-1.6-.6-.5-.2-.9-.3-1.4-.5-.3-.1-.5-.2-.8-.3h-.3c-.4-.1-.8-.2-1.3-.4-.4-.1-.8-.2-1.2-.3s-.8-.2-1.2-.3c-.5-.1-1-.2-1.5-.3-.3-.1-.6-.1-.9-.2-.7-.1-1.3-.2-2-.3-.1,0-.3,0-.4-.1-5.9-.6-11.8-.1-17.4,1.3-.1,0-.2.1-.3.1-.6.2-1.2.3-1.8.5-.3.1-.7.2-1,.3-.4.1-.8.3-1.2.4-.4.2-.9.3-1.3.5-.3.1-.5.2-.8.3-.5.2-1,.4-1.4.6-.2.1-.4.2-.7.3-.5.3-1,.6-1.5.8-.2.1-.4.2-.6.3-.5.3-.9.5-1.4.8-.2.1-.4.3-.7.4-.4.2-.8.5-1.2.8-.3.2-.5.3-.8.5-.4.2-.7.5-1,.7s-.6.4-.9.6c-.3.2-.6.4-.9.7s-.7.5-1,.8c-.2.2-.5.4-.7.6-.4.3-.7.6-1.1,1-.2.2-.4.3-.6.5-.4.4-.8.7-1.1,1.1-.2.2-.3.3-.5.5-.4.4-.8.8-1.1,1.2-.2.2-.3.4-.5.5-.4.4-.7.8-1,1.2-.2.2-.4.4-.5.7-.3.4-.6.7-.9,1.1-.2.3-.5.7-.7,1s-.4.6-.6.8c-.4.5-.7,1.1-1,1.6-.1.1-.1.2-.2.3-2.7,4.2-4.7,9.1-5.9,14.2,0,.1-.1.3-.1.4-.1.4-.2.9-.3,1.3-.1.6-.2,1.2-.3,1.8v.1c-1.1,7.1-.6,14.2,1.3,20.8.2.6.4,1.2.6,1.9.1.2.1.3.2.5.1.3.2.7.4,1,.3.7.5,1.4.8,2.1v.1c1.1,2.7,2.5,5.2,4.1,7.6,2.2,3.3,4.7,6.3,7.6,8.9.3.3.6.5.8.7.4.4.9.8,1.3,1.2.4.3.7.6,1.1.8.4.3.8.6,1.2.9.3.2.7.4,1,.7.5.3,1,.7,1.5,1,.2.1.5.3.7.4.6.4,1.3.8,2,1.1.1.1.2.1.3.2,5.4,2.9,11.4,4.7,17.7,5.3h.3c.7.1,1.5.1,2.2.2h.3c.7,0,1.4.1,2,.1,8.9,0,17.2-2.4,24.3-6.6.1-.1.2-.1.3-.2.4-.3.9-.5,1.3-.8.3-.2.6-.3.8-.5.2-.2.5-.3.7-.5.5-.3.9-.6,1.4-1l.1-.1c7.7-5.7,13.7-13.7,16.9-23.5.1-.3.2-.5.3-.7h0c.2-.7.4-1.4.6-2.1.1-.3.2-.7.2-1,.1-.4.2-.8.3-1.2.1-.4.1-.7.2-1.1.1-.4.1-.7.2-1.1.1-.4.1-.8.2-1.2,0-.3.1-.7.1-1,0-.4.1-.8.1-1.2,0-.3,0-.6.1-.9,0-.5.1-.9.1-1.4v-2c.1-11-3.6-21-9.7-29.1ZM90.2,43c-1,3.1-1,6.2-1.3,9.5-.1,1.7-.4,3.4-.5,5-.1.7,0,1.6-.1,2.4.1.2.1.5,0,.7-.3,2.5-1.5,4.5-2.6,6.7-1.2,2.1-2.1,4.3-3.6,6.2-2.6,3.4-5.9,6.1-8.9,9.1-1.4,1.5-2.9,2.8-4.8,3.7-2,.9-4,1.7-6.1,2.4-4.4,1.4-8.7,1.3-13.3,1.2-4.6-.1-9.3.4-13.7-1.1-.6-.2-1.1-.6-1.3-1.1h0c-2.4,0-3-2.9-1.6-4.2-7.6-3.9-13.4-10.1-16.8-17.6-2.4-5.2-3.6-10.9-3.5-16.7v-.1c0-.5,0-1.1.1-1.6v-.3c0-.5.1-1,.1-1.4,0-.1,0-.3.1-.4.1-.4.1-.9.2-1.3,0-.1.1-.3.1-.4.1-.5.2-.9.3-1.4v-.1c.2-.8.4-1.5.6-2.3.1-.4.2-.8.3-1.1q0-.1.1-.2c4.6-15.4,19-26.5,35.9-26.5,13.9,0,26,7.5,32.6,18.5,1,1.7,1.8,3.4,2.6,5.2.1,0,.2-.1.3-.1.3-.1.6-.1,1,0,.3,0,.6.1.9.3s.5.4.7.6c.2.2.4.5.4.8.2.8.3,1.7.5,2.5v.3c1,.3,1.8,1.3,1.3,2.8Z"/>
  <path class="st5" d="M94.5,32c-2.3-5.9-5.9-11.3-10.4-15.8.6,3.2.9,6.6.9,10,0,2.8-.2,5.5-.6,8.2,1,2.2,1.7,4,2.5,6.8,1.5,6.4,1.5,13.2-.6,20-6.2,20-27.4,31.2-47.4,25-2.3-.7-4.4-1.6-6.4-2.6-1.7.1-3.4.2-5.1.2-4.5,0-8.8-.5-12.9-1.5,5.6,6.2,12.8,11,21.3,13.6,25.4,7.9,52.4-6.4,60.3-31.7,3.3-11,2.5-22.3-1.6-32.2Z"/>
  <path class="st3" d="M84.4,34.1c-.5-1.2-1.1-2.3-1.8-3.5-6.6-11.2-18.8-18.6-32.6-18.6-20.9,0-37.9,17-37.9,37.9,0,9.8,3.7,18.7,9.8,25.4h-.1c3,3.3,6.5,6.1,10.5,8.2,26.8-2.3,48.4-23,52.1-49.4Z"/>
  <g>
    <path class="st2" d="M36.7,59.4c-.3,0-.6.3-.6.6v4.6c0,3,2.5,5.5,5.5,5.5s5.5-2.5,5.5-5.5v-7c0-.3-.3-.6-.6-.6s-.6.3-.6.6v4.4c0,.3-.3.6-.6.6s-.6-.3-.6-.6v-7.1c0-.3-.3-.6-.6-.6s-.6.3-.6.6v6.4c0,.3-.3.6-.6.6s-.6-.3-.6-.6v-8.4c0-.3-.3-.6-.6-.6s-.6.3-.6.6v8.4c0,.3-.3.6-.6.6s-.6-.3-.6-.6v-6.4c0-.3-.3-.6-.6-.6s-.6.3-.6.6v9.8c0,.3-.3.6-.6.6s-.6-.3-.6-.6v-4.7c-.2-.3-.4-.6-.8-.6Z"/>
    <path class="st2" d="M62.8,60v4.7c0,.3-.3.6-.6.6s-.6-.3-.6-.6v-9.8c0-.3-.3-.6-.6-.6s-.6.3-.6.6v6.4c0,.3-.3.6-.6.6s-.6-.3-.6-.6v-8.4c0-.3-.3-.6-.6-.6s-.6.3-.6.6v8.4c0,.3-.3.6-.6.6s-.6-.3-.6-.6v-6.4c0-.3-.3-.6-.6-.6s-.6.3-.6.6v7.1c0,.3-.3.6-.6.6s-.6-.3-.6-.6v-4.4c0-.3-.3-.6-.6-.6s-.8.3-.8.6v7c0,3,2.5,5.5,5.5,5.5s5.5-2.5,5.5-5.5v-4.6c0-.3-.3-.6-.6-.6s-.6.3-.6.6Z"/>
    <path class="st2" d="M32.1,52.8l-2.9,3.6c-.2.3-.6.3-.9.1s-.3-.6-.1-.9l6.1-7.7c.2-.3.2-.7-.1-.9s-.7-.2-.9.1l-3.9,5c-.2.3-.6.3-.9.1s-.3-.6-.1-.9l5.2-6.5c.2-.3.2-.7-.1-.9s-.7-.2-.9.1l-5.2,6.5c-.2.3-.6.3-.9.1s-.3-.6-.1-.9l3.9-5c.2-.3.2-.7-.1-.9s-.7-.2-.9.1l-4.4,5.6c-.2.3-.6.3-.9.1,0,0,0-.4.2-.6l2.7-3.4c.2-.3.2-.7-.1-.9s-.7-.2-.9.1l-4.4,5.5c-1.9,2.4-1.5,5.9.9,7.7,2.4,1.9,5.9,1.5,7.7-.9l2.9-3.6c.2-.3.2-.7-.1-.9-.2-.1-.6-.1-.8.2Z"/>
    <path class="st2" d="M67.5,52.7c-.3.2-.3.6-.1.9l2.9,3.6c1.9,2.4,5.4,2.8,7.7.9,2.4-1.9,2.8-5.4.9-7.7l-4.4-5.5c-.2-.3-.6-.3-.9-.1s-.3.6-.1.9l2.7,3.4c.2.3.2.7-.1.9-.3.2-.7.2-.9-.1l-4.4-5.6c-.2-.3-.6-.3-.9-.1s-.3.6-.1.9l3.9,5c.2.3.2.7-.1.9s-.7.2-.9-.1l-5.2-6.5c-.2-.3-.6-.3-.9-.1s-.3.6-.1.9l5.2,6.5c.2.3.2.7-.1.9s-.7.2-.9-.1l-3.9-5c-.2-.3-.6-.3-.9-.1s-.3.6-.1.9l6.1,7.7c.2.3.2.7-.1.9-.3.2-.7.2-.9-.1l-2.9-3.6c.1-.7-.2-.7-.5-.5Z"/>
    <g>
      <path class="st1" d="M31.2,43.1c.2.1.3.3.4.5l.2-.2c.6-.7,1.6-.9,2.3-.4v-2.1h6.2v2.5h-5.7c.3.3.5.7.5,1.1h1.5v2.5h-1c.2.4.2.7.1,1.1h4.6v2.5h-6.2v-.2l-.9,1.2c.2.1.4.2.5.3.2.1.3.3.4.4v-.6h2.4v2.3h-2.3c-.1.1-.1.2-.2.3l-2.5,3.2h5.8v-2.6c0-.3.1-.6.2-.8h-.1v-2.5h2.4v.8c.2-.8.9-1.4,1.8-1.4.5,0,1,.2,1.3.5h14.3c.3-.3.8-.5,1.3-.5s1,.2,1.3.5h3.7v2.5h-.9c.1.3.2.5.2.8v2.6h6.2l-2.5-3.2c-.1-.1-.1-.2-.2-.3h-1.9v-2.5h2.4v.1c.2-.1.3-.2.5-.3l-.8-1h-2.2v-2.2h.4c-.1-.4,0-.8.1-1.1h-4.3v-2.5h3.7v-3.6h2.4v1.9c.7-.2,1.5,0,1.9.6l.2.2c.1-.2.2-.3.4-.5.3-.2.6-.3.9-.4v-5.4h-17.8v-2h-.7c.1-2.3,1.9-1.9,3.6-1.7,3.1.3,6.5.7,7-4.5l-2.2-.3c-.3,3-2.5,2.7-4.6,2.5-3.3-.3-5.9-.3-6,3.9h-.7v2h-17.8v5.5c.1.3.3.4.4.5ZM39.9,46.8h-2.4v-2.5h2.4v2.5ZM61,48h2.4v2.5h-2.4v-2.5ZM61,40.8h2.4v2.5h-2.4v-2.5ZM53.5,50.4h-2.4v-2.4h2.4v2.4ZM60.1,50.4h-2.4v-2.4h2.4v2.4ZM57.7,40.8h2.4v2.5h-2.4v-2.5ZM57.3,44.4h2.4v2.5h-2.4v-2.5ZM56.8,50.4h-2.4v-2.4h2.4v2.4ZM54.4,40.8h2.4v2.5h-2.4v-2.5ZM54,44.4h2.4v2.5h-2.4v-2.5ZM51.1,40.8h2.4v2.5h-2.4v-2.5ZM50.7,44.4h2.4v2.5h-2.4v-2.5ZM43.6,50.4h-2.4v-2.4h2.4v2.4ZM46.9,50.4h-2.4v-2.4h2.4v2.4ZM50.2,50.4h-2.4v-2.4h2.4v2.4ZM47.8,40.8h2.4v2.5h-2.4v-2.5ZM47.4,44.4h2.4v2.5h-2.4v-2.5ZM44.5,40.8h2.4v2.5h-2.4v-2.5ZM44.1,44.4h2.4v2.5h-2.4v-2.5ZM41.2,40.8h2.4v2.5h-2.4v-2.5ZM40.7,44.4h2.4v2.5h-2.4v-2.5Z"/>
      <path class="st1" d="M53.6,55.8c.2,0,.4,0,.6.1v-1c0-.3.1-.6.2-.8h-8.7c.1.3.2.5.2.8v1c.2-.1.4-.1.6-.1,1,0,1.7.7,1.8,1.7h3.4c.2-1,.9-1.7,1.9-1.7Z"/>
    </g>
  </g>
</svg>