<?xml version="1.0" encoding="UTF-8"?>
<svg id="Layer_1" xmlns="http://www.w3.org/2000/svg" version="1.1" viewBox="0 0 100 100">
  <!-- Generator: Adobe Illustrator 30.4.0, SVG Export Plug-In . SVG Version: 2.1.4 Build 226)  -->
  <defs>
    <style>
      .st0 {
        fill: #57585a;
      }

      .st1 {
        fill: #b24d60;
      }

      .st2, .st3 {
        fill: #fff;
      }

      .st4 {
        fill: #282828;
      }

      .st3 {
        isolation: isolate;
        opacity: .1;
      }
    </style>
  </defs>
  <path class="st1" d="M83.2,30.4c-6.7-11.4-19.2-19-33.2-19-21.3,0-38.6,17.3-38.6,38.6,0,10,3.8,19.1,10,25.9h-.1c7,7.9,17.3,12.7,28.8,12.7,21.3,0,38.6-17.3,38.6-38.6-.1-7.1-2-13.8-5.5-19.6Z"/>
  <path class="st0" d="M95.9,64.2h0c.2-.7.4-1.4.6-2.1.1-.3.2-.7.2-1,.1-.4.2-.8.3-1.2.1-.4.1-.7.2-1.1.1-.4.1-.7.2-1.1.1-.4.1-.8.2-1.2,0-.3.1-.7.1-1,0-.4.1-.8.1-1.2,0-.3,0-.6.1-.9,0-.5.1-.9.1-1.4v-2c0-6-1.1-11.8-3.2-17.1q0-.1-.1-.2c-.2-.6-.4-1.1-.7-1.7-.1-.2-.2-.4-.3-.7-.2-.4-.3-.7-.5-1.1-.1-.2-.2-.4-.3-.6h0c-.1-.1-.2-.3-.2-.4-.1-.2-.2-.4-.3-.6-.2-.4-.4-.7-.6-1.1-.1-.2-.3-.5-.4-.7-.3-.5-.6-1-.9-1.4s-.5-.8-.8-1.2c-.2-.2-.3-.5-.5-.7-.1-.1-.1-.2-.2-.3-.3-.4-.5-.7-.8-1.1-.3-.3-.5-.7-.8-1s-.5-.6-.8-.9c-.3-.4-.6-.8-1-1.1-.2-.2-.4-.5-.6-.7-.5-.5-.9-1-1.4-1.5-.1-.1-.2-.2-.3-.3-4.3-4.2-9.2-7.4-14.5-9.7-.1,0-.2-.1-.3-.1s-.2-.1-.3-.1h0c-.5-.2-1-.4-1.4-.6-.3-.1-.6-.2-.8-.3-.1,0-.3-.1-.4-.1-.3-.1-.6-.2-.9-.3-.2-.1-.4-.1-.5-.2q-.1,0-.2-.1t-.1-.1h-.1c-.2-.1-.4-.1-.6-.2-.2-.1-.3-.1-.5-.2-.5-.1-1-.3-1.5-.4h0c-.1,0-.3-.1-.4-.1s-.2,0-.2-.1c-.5-.1-1.1-.2-1.6-.3-.2,0-.4-.1-.6-.1h-.1c-.5-.1-1-.2-1.5-.2-.3,0-.5-.1-.8-.1h-.8c-.2,0-.5-.1-.7-.1-.3,0-.6-.1-.9-.1h-4.1c-.6,0-1.2,0-1.9.1h-.2c-.8,0-1.5.1-2.3.2h-.1c-.8.1-1.5.2-2.3.3h-.1c-.8.1-1.5.2-2.2.4h-.1c-.3-.2-.5-.1-.7-.1h0c-.1,0-.2,0-.3.1-.4.1-.9.2-1.3.3h0c-.1,0-.2.1-.3.1h-.3c-.1,0-.2.1-.3.1-.4.1-.8.2-1.2.4h0c-.3.1-.6.2-1,.3h0c-.4.1-.8.3-1.2.4h0c-1.2.4-2.4.9-3.6,1.5h0c-.2.1-.4.2-.7.3h0c-.5.2-1,.5-1.5.7h-.1s-.1,0-.1.1c-.1.1-.3.1-.4.2h0c-.4.2-.8.5-1.2.7h-.2c-.2.1-.4.3-.7.4h0c-2.9,1.7-5.7,3.8-8.1,6.1h0c-.1,0-.1.1-.2.1l-.1.1-.1.1-.1.1c-.4.4-.8.8-1.2,1.2h0c-.1.1-.2.2-.2.3-.2.2-.4.4-.6.6-.3.3-.5.5-.7.8h0q-.1.1-.2.2c-.3.3-.6.7-.9,1-.1.2-.3.3-.4.5-3.1,3.8-5.6,8-7.3,12.5-.2.6-.4,1.2-.7,1.8-.1.2-.1.3-.2.5-.1.3-.2.7-.3,1-.2.7-.4,1.4-.6,2.2v.1c-.7,2.8-1.2,5.6-1.4,8.5h0c-.2,2.2-.2,4.5,0,6.7v.6c0,.6.1,1.2.2,1.8,0,.2.1.5.1.7.1.7.2,1.3.3,2,.1.4.1.7.2,1.1.1.5.2.9.3,1.4.1.4.2.8.3,1.2.1.3.2.6.2,1,.1.2.1.5.2.7.1.2.1.4.2.5.2.5.3,1,.5,1.5,0,.1.1.2.1.3.1.3.2.7.4,1,.1.3.3.7.4,1,.1.2.2.4.2.6.1.1.1.3.2.4h0v.1h0c.3.6.5,1.2.8,1.8.1.2.2.3.3.5.2.4.4.8.6,1.3.1.2.2.4.3.6.2.4.4.8.7,1.2.1.2.2.3.3.5.3.6.7,1.1,1,1.6h0c.7,1.1,1.5,2.1,2.3,3.2.1.1.2.2.3.3.6.7,1.2,1.5,1.8,2.2.2.3.5.5.7.8.3.3.6.6.9.9.3.4.7.7,1.1,1,.2.2.5.4.7.7.6.5,1.2,1.1,1.8,1.6.2.1.4.3.5.4.5.4,1,.8,1.6,1.2.2.2.4.3.6.5.6.5,1.3.9,2,1.3.2.1.4.3.7.4.5.3,1,.6,1.6.9.4.2.7.4,1.1.6.3.2.6.3,1,.5,5.1,2.6,10.8,4.3,16.7,4.8h.3c.7.1,1.5.1,2.2.2h.3c.7,0,1.4.1,2,.1,1.1,0,2.1,0,3.2-.1h.2c.6,0,1.3-.1,1.9-.2.4,0,.7-.1,1.1-.1s.7-.1,1.1-.2c.7-.1,1.4-.2,2.1-.4h.1c6.3-1.3,12.4-3.8,17.9-7.7,3.4-2.4,6.5-5.2,9.1-8.3,4-4.6,7.1-10.1,9.1-16.2,0-.1.1-.3.2-.6ZM84.4,65.7c-1.7,3.6-3.9,7-6.7,10.1l-.6.6-.8.8c-.7.6-1.4,1.3-2.1,1.9-.1.1-.2.1-.2.2-.3.3-.6.5-.9.7-.1.1-.2.1-.3.2-.1.1-.3.2-.5.3-.2.1-.3.2-.5.4-.3.2-.7.5-1,.7-.1.1-.2.1-.3.2-4.5,2.9-9.6,4.9-15,5.7h-.3c-.5.1-1,.1-1.4.2-.2,0-.5,0-.7.1-.3,0-.7.1-1,.1h-3.6c-.4,0-.8,0-1.3-.1h-.5c-.5,0-1-.1-1.5-.2h-.2c-.5-.1-1.1-.2-1.6-.2-.1,0-.2,0-.3-.1-.5-.1-.9-.2-1.4-.3-.2,0-.3-.1-.5-.1-.4-.1-.8-.2-1.2-.3-.2-.1-.5-.1-.7-.2-.3-.1-.6-.2-1-.3-.4-.1-.7-.2-1.1-.4-.3-.1-.5-.2-.8-.3-.4-.1-.7-.3-1.1-.4-.2-.1-.5-.2-.7-.3-.4-.2-.7-.3-1.1-.5-1.2-.6-2.4-1.2-3.6-1.9-.1-.1-.2-.1-.4-.2-.4-.3-.8-.5-1.2-.8-.1-.1-.2-.1-.3-.2-.4-.3-.8-.6-1.2-.9-.1-.1-.2-.1-.3-.2-.4-.3-.8-.7-1.2-1l-.2-.2c-.4-.4-.8-.7-1.3-1.1l-.1-.1c-.4-.4-.9-.9-1.3-1.3h0c-1.3-1.4-2.5-2.9-3.7-4.5-6.4-9.2-8.2-20.1-5.9-30.3.8-3.5,2.1-6.8,3.8-9.9h0c.3-.5.5-.9.8-1.4.1-.2.2-.4.4-.6.1-.1.2-.3.3-.4.2-.3.4-.5.6-.8.1-.2.3-.4.4-.5.2-.3.4-.5.6-.8.1-.2.3-.4.4-.5.2-.2.4-.5.6-.7s.3-.4.5-.5c.4-.4.7-.8,1.1-1.2.2-.2.4-.4.5-.6l.6-.6c.2-.2.4-.4.6-.5l.6-.6c.2-.2.4-.4.6-.5.2-.2.4-.4.6-.5.2-.2.5-.4.7-.6.2-.1.4-.3.6-.4.4-.3.8-.6,1.3-.9.2-.1.4-.3.6-.4.3-.2.6-.4.8-.5.2-.1.4-.3.6-.4.3-.2.6-.3.8-.5.2-.1.4-.2.6-.3.3-.2.6-.3,1-.5.2-.1.3-.2.5-.3.5-.2,1-.5,1.5-.7.2-.1.3-.1.5-.2.4-.2.7-.3,1.1-.4.2-.1.4-.1.6-.2.3-.1.7-.2,1-.4.2-.1.4-.1.6-.2.4-.1.8-.2,1.1-.3.2,0,.3-.1.5-.1.6-.1,1.1-.3,1.7-.4.1,0,.2,0,.3-.1.5-.1,1-.2,1.4-.3.2,0,.4-.1.6-.1.4-.1.8-.1,1.2-.2.2,0,.4,0,.6-.1.4,0,.8-.1,1.2-.1h2.4c.9,0,1.7,0,2.6.1.4,0,.7.1,1,.1.5,0,1,.1,1.5.2.4.1.9.1,1.3.2s.8.1,1.2.2c.5.1,1,.2,1.5.4.3.1.6.1.9.2.6.2,1.1.3,1.6.5.2.1.5.1.7.2.6.2,1.2.5,1.8.7.2.1.3.1.5.2.7.3,1.3.6,1.9.9.1,0,.2.1.3.1.7.3,1.3.7,2,1.1.1,0,.1.1.2.1.7.4,1.4.8,2,1.3h0c4.7,3.1,8.6,7.3,11.5,12.1,1.9,3.2,3.3,6.7,4.2,10.3,1.1,4.5,1.4,9.1.8,13.7-.2,3.5-1.2,7.2-2.7,10.8q0-.1.1-.1-.1,0-.1.1h0Z"/>
  <path class="st4" d="M86.8,41.2c1.5,6.4,1.5,13.2-.6,20-6.2,20-27.4,31.2-47.4,25-2.3-.7-4.4-1.6-6.4-2.6-1.7.1-3.4.2-5.1.2-4.5,0-8.8-.5-12.9-1.5,5.6,6.2,12.8,11,21.3,13.6,25.4,7.9,52.4-6.4,60.3-31.7,3.4-11,2.6-25-1.9-33.1h0c-2.3-5.5-5.7-10.6-10-15,.6,3.2.9,6.6.9,10,0,2.8-.2,5.5-.6,8.2.9,2.3,1.7,4.5,2.4,6.9"/>
  <path class="st3" d="M84.3,34.2c-.5-1.2-1.1-2.3-1.8-3.5-6.6-11.2-18.8-18.6-32.6-18.6-20.9,0-37.9,17-37.9,37.9,0,9.8,3.7,18.7,9.8,25.4h-.1c3,3.3,6.5,6.1,10.5,8.2,26.9-2.3,48.4-23,52.1-49.4Z"/>
  <path class="st2" d="M55.2,39.8c-9,0-16.3,6.4-16.3,14.3s7.3,14.3,16.3,14.3c3.2,0,6.3-.8,8.8-2.3,2.3,1.4,4.8,1.3,6.2,1.1.4,0,.5-.6.2-.8-1.4-.9-2.1-2.2-2.6-3.3,2.3-2.5,3.6-5.6,3.6-9,.1-7.9-7.2-14.3-16.2-14.3ZM64.7,58.8c0,.7-.6,1.3-1.3,1.3h-8.5c-.7,0-1.3-.6-1.3-1.3h0c0-.7.6-1.3,1.3-1.3h8.5c.8.1,1.3.6,1.3,1.3h0ZM63.5,55.3h-16.6c-.7,0-1.3-.6-1.3-1.3s.6-1.3,1.3-1.3h16.6c.7,0,1.3.6,1.3,1.3-.1.8-.6,1.3-1.3,1.3ZM63.5,50.6h-16.6c-.7,0-1.3-.6-1.3-1.3s.6-1.3,1.3-1.3h16.6c.7,0,1.3.6,1.3,1.3-.1.7-.6,1.3-1.3,1.3ZM33,50.2c-1.9-2-3-4.6-3-7.4,0-6.5,6-11.8,13.4-11.8,5,0,9.5,2.5,11.7,6h0c-10,0-18.2,6.9-19,15.7h0c-1.9,1.1-3.9,1.1-5.1.9-.4,0-.4-.5-.1-.7,1.1-.8,1.8-1.8,2.1-2.7Z"/>
</svg>