<?xml version="1.0" encoding="UTF-8"?>
<svg id="Layer_1" xmlns="http://www.w3.org/2000/svg" version="1.1" viewBox="0 0 100 100">
  <!-- Generator: Adobe Illustrator 30.4.0, SVG Export Plug-In . SVG Version: 2.1.4 Build 226)  -->
  <defs>
    <style>
      .st0 {
        fill: #57585a;
      }

      .st1 {
        fill: #b24d60;
      }

      .st2, .st3 {
        fill: #fff;
      }

      .st4 {
        fill: #282828;
      }

      .st3 {
        isolation: isolate;
        opacity: .1;
      }
    </style>
  </defs>
  <path class="st1" d="M83.2,30.5c-6.7-11.4-19.1-18.9-33.1-18.9-21.2,0-38.5,17.3-38.5,38.5,0,9.9,3.7,19,9.9,25.8h-.1c7,7.8,17.3,12.7,28.6,12.7,21.2,0,38.5-17.3,38.5-38.5.1-7.1-1.9-13.8-5.3-19.6Z"/>
  <path class="st0" d="M88.3,21c-.3-.4-.7-.9-1-1.3,0,0,0-.1-.1-.1h0c-4.3-5.3-9.8-9.8-16.3-12.9h0c-.7-.3-1.4-.7-2.2-1-.2-.1-.5-.2-.7-.3-.5-.2-1-.4-1.6-.6-.5-.2-.9-.3-1.4-.5-.3-.1-.5-.2-.8-.3h-.3c-.4-.1-.8-.2-1.3-.4-.4-.1-.8-.2-1.2-.3s-.8-.2-1.2-.3c-.5-.1-1-.2-1.5-.3-.3-.1-.6-.1-.9-.2-.7-.1-1.3-.2-2-.3-.1,0-.3,0-.4-.1-5.9-.6-11.8-.1-17.4,1.3-.1,0-.2.1-.3.1-.6.2-1.2.3-1.8.5-.3.1-.7.2-1,.3-.4.1-.8.3-1.2.4-.4.2-.9.3-1.3.5-.3.1-.5.2-.8.3-.5.2-1,.4-1.4.6-.2.1-.4.2-.7.3-.5.3-1,.6-1.5.8-.2.1-.4.2-.6.3-.5.3-.9.5-1.4.8-.2.1-.4.3-.7.4-.4.2-.8.5-1.2.8-.3.2-.5.3-.8.5-.4.2-.7.5-1,.7s-.6.4-.9.6c-.3.2-.6.4-.9.7s-.7.5-1,.8c-.2.2-.5.4-.7.6-.4.3-.7.6-1.1,1-.2.2-.4.3-.6.5-.4.4-.8.7-1.1,1.1-.2.2-.3.3-.5.5-.4.4-.8.8-1.1,1.2-.2.2-.3.4-.5.5-.4.4-.7.8-1,1.2-.2.2-.4.4-.5.7-.3.4-.6.7-.9,1.1-.2.3-.5.7-.7,1s-.4.6-.6.8c-.4.5-.7,1.1-1,1.6-.1.1-.1.2-.2.3-2.7,4.2-4.7,9.1-5.9,14.2,0,.1-.1.3-.1.4-.1.4-.2.9-.3,1.3-.1.6-.2,1.2-.3,1.8v.1c-1.1,7.1-.6,14.2,1.3,20.8.2.6.4,1.2.6,1.9.1.2.1.3.2.5.1.3.2.7.4,1,.3.7.5,1.4.8,2.1v.1c1.1,2.7,2.5,5.2,4.1,7.6,2.2,3.3,4.7,6.3,7.6,8.9.3.3.6.5.8.7.4.4.9.8,1.3,1.2.4.3.7.6,1.1.8.4.3.8.6,1.2.9.3.2.7.4,1,.7.5.3,1,.7,1.5,1,.2.1.5.3.7.4.6.4,1.3.8,2,1.1.1.1.2.1.3.2,5.4,2.9,11.4,4.7,17.7,5.3h.3c.7.1,1.5.1,2.2.2h.3c.7,0,1.4.1,2,.1,8.9,0,17.2-2.4,24.3-6.6.1-.1.2-.1.3-.2.4-.3.9-.5,1.3-.8.3-.2.6-.3.8-.5.2-.2.5-.3.7-.5.5-.3.9-.6,1.4-1l.1-.1c7.7-5.7,13.7-13.7,16.9-23.5.1-.3.2-.5.3-.7h0c.2-.7.4-1.4.6-2.1.1-.3.2-.7.2-1,.1-.4.2-.8.3-1.2.1-.4.1-.7.2-1.1.1-.4.1-.7.2-1.1.1-.4.1-.8.2-1.2,0-.3.1-.7.1-1,0-.4.1-.8.1-1.2,0-.3,0-.6.1-.9,0-.5.1-.9.1-1.4v-2c.1-11-3.6-21-9.7-29.1ZM90.2,43c-1,3.1-1,6.2-1.3,9.5-.1,1.7-.4,3.4-.5,5-.1.7,0,1.6-.1,2.4.1.2.1.5,0,.7-.3,2.5-1.5,4.5-2.6,6.7-1.2,2.1-2.1,4.3-3.6,6.2-2.6,3.4-5.9,6.1-8.9,9.1-1.4,1.5-2.9,2.8-4.8,3.7-2,.9-4,1.7-6.1,2.4-4.4,1.4-8.7,1.3-13.3,1.2-4.6-.1-9.3.4-13.7-1.1-.6-.2-1.1-.6-1.3-1.1h0c-2.4,0-3-2.9-1.6-4.2-7.6-3.9-13.4-10.1-16.8-17.6-2.4-5.2-3.6-10.9-3.5-16.7v-.1c0-.5,0-1.1.1-1.6v-.3c0-.5.1-1,.1-1.4,0-.1,0-.3.1-.4.1-.4.1-.9.2-1.3,0-.1.1-.3.1-.4.1-.5.2-.9.3-1.4v-.1c.2-.8.4-1.5.6-2.3.1-.4.2-.8.3-1.1q0-.1.1-.2c4.6-15.4,19-26.5,35.9-26.5,13.9,0,26,7.5,32.6,18.5,1,1.7,1.8,3.4,2.6,5.2.1,0,.2-.1.3-.1.3-.1.6-.1,1,0,.3,0,.6.1.9.3s.5.4.7.6c.2.2.4.5.4.8.2.8.3,1.7.5,2.5v.3c1,.3,1.8,1.3,1.3,2.8Z"/>
  <path class="st4" d="M94.5,32c-2.3-5.9-5.9-11.3-10.4-15.8.6,3.2.9,6.6.9,10,0,2.8-.2,5.5-.6,8.2,1,2.2,1.7,4,2.5,6.8,1.5,6.4,1.5,13.2-.6,20-6.2,20-27.4,31.2-47.4,25-2.3-.7-4.4-1.6-6.4-2.6-1.7.1-3.4.2-5.1.2-4.5,0-8.8-.5-12.9-1.5,5.6,6.2,12.8,11,21.3,13.6,25.4,7.9,52.4-6.4,60.3-31.7,3.3-11,2.5-22.3-1.6-32.2Z"/>
  <path class="st3" d="M84.4,34.1c-.5-1.2-1.1-2.3-1.8-3.5-6.6-11.2-18.8-18.6-32.6-18.6-20.9,0-37.9,17-37.9,37.9,0,9.8,3.7,18.7,9.8,25.4h-.1c3,3.3,6.5,6.1,10.5,8.2,26.8-2.3,48.4-23,52.1-49.4Z"/>
  <g>
    <path class="st2" d="M71.4,36.5h-2.1v-2.4c0-.6-.5-1-1-1-6.3,0-12.5,1.2-18.3,3.7-5.8-2.5-11.9-3.7-18.2-3.7-.6,0-1,.5-1,1v2.4h-2.1c-.6,0-1,.5-1,1v26c0,.6.5,1,1,1,7.2,0,14.3,1.5,21,4.3.1,0,.3.1.4.1s.3,0,.4-.1c6.6-2.8,13.7-4.3,20.9-4.3.6,0,1-.4,1-1v-26c.1-.5-.4-1-1-1ZM49,63.7c-5.2-2-10.7-3.2-16.3-3.3v-25.2c5.6.1,11.1,1.3,16.3,3.4v25.1ZM67.4,60.5c-5.6.1-11,1.2-16.3,3.3v-25.2c5.2-2.1,10.7-3.3,16.3-3.4v25.3Z"/>
    <path class="st2" d="M55,43.3h.3c2.7-.8,5.4-1.4,8.2-1.6.6,0,.9-.6.9-1.1,0-.6-.6-.9-1.1-.9-2.9.3-5.7.9-8.5,1.7-.5.1-.8.7-.7,1.3.1.4.5.6.9.6Z"/>
    <path class="st2" d="M63.3,44.6c-2.9.3-5.7.9-8.6,1.7-.5.1-.8.7-.7,1.3.1.4.5.7,1,.7h.3c2.7-.8,5.4-1.4,8.2-1.6.6,0,.9-.6.9-1.1,0-.7-.5-1.1-1.1-1Z"/>
    <path class="st2" d="M63.3,49.5c-2.9.3-5.7.9-8.6,1.7-.5.1-.8.7-.7,1.3.1.4.5.7,1,.7h.3c2.7-.8,5.4-1.4,8.2-1.6.6,0,.9-.6.9-1.1,0-.7-.5-1.1-1.1-1Z"/>
    <path class="st2" d="M63.3,54.4c-2.9.3-5.7.9-8.6,1.7-.5.1-.8.7-.7,1.3.1.4.5.7,1,.7h.3c2.7-.8,5.4-1.4,8.2-1.6.6,0,.9-.6.9-1.1,0-.7-.5-1-1.1-1Z"/>
    <path class="st2" d="M37.4,53c.5.2,1.1,0,1.3-.6.1-.4.3-.8.4-1.1.6.1,1.1.2,1.6.3.6.1,1.2.3,2,.4.2.4.3.9.5,1.4.1.4.6.7.9.7.1,0,.2,0,.4-.1.5-.2.8-.8.6-1.3-1.3-3.2-1.9-5-3.3-8.9-.1-.4-.5-.7-.9-.7s-.8.2-1,.6c-1.3,3-2,4.5-3.3,8,0,.5.3,1.1.8,1.3ZM40.9,46.9c.4,1,.7,2,1,2.9-.2,0-.5-.1-.7-.1-.4-.1-.8-.2-1.4-.3.4-.9.8-1.7,1.1-2.5Z"/>
  </g>
</svg>