<?xml version="1.0" encoding="UTF-8"?>
<svg id="Layer_1" xmlns="http://www.w3.org/2000/svg" version="1.1" viewBox="0 0 100 100">
  <!-- Generator: Adobe Illustrator 30.4.0, SVG Export Plug-In . SVG Version: 2.1.4 Build 226)  -->
  <defs>
    <style>
      .st0 {
        fill: #57585a;
      }

      .st1 {
        fill-rule: evenodd;
      }

      .st1, .st2, .st3 {
        fill: #fff;
      }

      .st4 {
        fill: #b24d60;
      }

      .st5 {
        fill: #282828;
      }

      .st3 {
        isolation: isolate;
        opacity: .1;
      }
    </style>
  </defs>
  <path class="st4" d="M83.2,30.5c-6.7-11.4-19.1-18.9-33.1-18.9-21.2,0-38.5,17.3-38.5,38.5,0,9.9,3.7,19,9.9,25.8h-.1c7,7.8,17.3,12.7,28.6,12.7,21.2,0,38.5-17.3,38.5-38.5.1-7.1-1.9-13.8-5.3-19.6Z"/>
  <path class="st0" d="M88.3,21c-.3-.4-.7-.9-1-1.3,0,0,0-.1-.1-.1h0c-4.3-5.3-9.8-9.8-16.3-12.9h0c-.7-.3-1.4-.7-2.2-1-.2-.1-.5-.2-.7-.3-.5-.2-1-.4-1.6-.6-.5-.2-.9-.3-1.4-.5-.3-.1-.5-.2-.8-.3h-.3c-.4-.1-.8-.2-1.3-.4-.4-.1-.8-.2-1.2-.3s-.8-.2-1.2-.3c-.5-.1-1-.2-1.5-.3-.3-.1-.6-.1-.9-.2-.7-.1-1.3-.2-2-.3-.1,0-.3,0-.4-.1-5.9-.6-11.8-.1-17.4,1.3-.1,0-.2.1-.3.1-.6.2-1.2.3-1.8.5-.3.1-.7.2-1,.3-.4.1-.8.3-1.2.4-.4.2-.9.3-1.3.5-.3.1-.5.2-.8.3-.5.2-1,.4-1.4.6-.2.1-.4.2-.7.3-.5.3-1,.6-1.5.8-.2.1-.4.2-.6.3-.5.3-.9.5-1.4.8-.2.1-.4.3-.7.4-.4.2-.8.5-1.2.8-.3.2-.5.3-.8.5-.4.2-.7.5-1,.7s-.6.4-.9.6c-.3.2-.6.4-.9.7s-.7.5-1,.8c-.2.2-.5.4-.7.6-.4.3-.7.6-1.1,1-.2.2-.4.3-.6.5-.4.4-.8.7-1.1,1.1-.2.2-.3.3-.5.5-.4.4-.8.8-1.1,1.2-.2.2-.3.4-.5.5-.4.4-.7.8-1,1.2-.2.2-.4.4-.5.7-.3.4-.6.7-.9,1.1-.2.3-.5.7-.7,1s-.4.6-.6.8c-.4.5-.7,1.1-1,1.6-.1.1-.1.2-.2.3-2.7,4.2-4.7,9.1-5.9,14.2,0,.1-.1.3-.1.4-.1.4-.2.9-.3,1.3-.1.6-.2,1.2-.3,1.8v.1c-1.1,7.1-.6,14.2,1.3,20.8.2.6.4,1.2.6,1.9.1.2.1.3.2.5.1.3.2.7.4,1,.3.7.5,1.4.8,2.1v.1c1.1,2.7,2.5,5.2,4.1,7.6,2.2,3.3,4.7,6.3,7.6,8.9.3.3.6.5.8.7.4.4.9.8,1.3,1.2.4.3.7.6,1.1.8.4.3.8.6,1.2.9.3.2.7.4,1,.7.5.3,1,.7,1.5,1,.2.1.5.3.7.4.6.4,1.3.8,2,1.1.1.1.2.1.3.2,5.4,2.9,11.4,4.7,17.7,5.3h.3c.7.1,1.5.1,2.2.2h.3c.7,0,1.4.1,2,.1,8.9,0,17.2-2.4,24.3-6.6.1-.1.2-.1.3-.2.4-.3.9-.5,1.3-.8.3-.2.6-.3.8-.5.2-.2.5-.3.7-.5.5-.3.9-.6,1.4-1l.1-.1c7.7-5.7,13.7-13.7,16.9-23.5.1-.3.2-.5.3-.7h0c.2-.7.4-1.4.6-2.1.1-.3.2-.7.2-1,.1-.4.2-.8.3-1.2.1-.4.1-.7.2-1.1.1-.4.1-.7.2-1.1.1-.4.1-.8.2-1.2,0-.3.1-.7.1-1,0-.4.1-.8.1-1.2,0-.3,0-.6.1-.9,0-.5.1-.9.1-1.4v-2c.1-11-3.6-21-9.7-29.1ZM90.2,43c-1,3.1-1,6.2-1.3,9.5-.1,1.7-.4,3.4-.5,5-.1.7,0,1.6-.1,2.4.1.2.1.5,0,.7-.3,2.5-1.5,4.5-2.6,6.7-1.2,2.1-2.1,4.3-3.6,6.2-2.6,3.4-5.9,6.1-8.9,9.1-1.4,1.5-2.9,2.8-4.8,3.7-2,.9-4,1.7-6.1,2.4-4.4,1.4-8.7,1.3-13.3,1.2-4.6-.1-9.3.4-13.7-1.1-.6-.2-1.1-.6-1.3-1.1h0c-2.4,0-3-2.9-1.6-4.2-7.6-3.9-13.4-10.1-16.8-17.6-2.4-5.2-3.6-10.9-3.5-16.7v-.1c0-.5,0-1.1.1-1.6v-.3c0-.5.1-1,.1-1.4,0-.1,0-.3.1-.4.1-.4.1-.9.2-1.3,0-.1.1-.3.1-.4.1-.5.2-.9.3-1.4v-.1c.2-.8.4-1.5.6-2.3.1-.4.2-.8.3-1.1q0-.1.1-.2c4.6-15.4,19-26.5,35.9-26.5,13.9,0,26,7.5,32.6,18.5,1,1.7,1.8,3.4,2.6,5.2.1,0,.2-.1.3-.1.3-.1.6-.1,1,0,.3,0,.6.1.9.3s.5.4.7.6c.2.2.4.5.4.8.2.8.3,1.7.5,2.5v.3c1,.3,1.8,1.3,1.3,2.8Z"/>
  <path class="st5" d="M94.5,32c-2.3-5.9-5.9-11.3-10.4-15.8.6,3.2.9,6.6.9,10,0,2.8-.2,5.5-.6,8.2,1,2.2,1.7,4,2.5,6.8,1.5,6.4,1.5,13.2-.6,20-6.2,20-27.4,31.2-47.4,25-2.3-.7-4.4-1.6-6.4-2.6-1.7.1-3.4.2-5.1.2-4.5,0-8.8-.5-12.9-1.5,5.6,6.2,12.8,11,21.3,13.6,25.4,7.9,52.4-6.4,60.3-31.7,3.3-11,2.5-22.3-1.6-32.2Z"/>
  <path class="st3" d="M84.4,34.1c-.5-1.2-1.1-2.3-1.8-3.5-6.6-11.2-18.8-18.6-32.6-18.6-20.9,0-37.9,17-37.9,37.9,0,9.8,3.7,18.7,9.8,25.4h-.1c3,3.3,6.5,6.1,10.5,8.2,26.8-2.3,48.4-23,52.1-49.4Z"/>
  <g>
    <path class="st1" d="M44.5,47.07c0,2.6,1.6,4.9,4.1,5.7h0c.4.1.7-.1.9-.4.1-.4-.1-.7-.4-.9-1.9-.7-3.2-2.4-3.2-4.5,0-2.6,2.1-4.7,4.7-4.7,2,0,3.8,1.3,4.5,3.2h0c.1.4.5.5.9.4s.5-.5.4-.9c-.9-2.4-3.2-4.1-5.7-4.1-3.4.1-6.2,2.8-6.2,6.2ZM47.2,47.07c0,.3,0,.6.1.8.1.4.5.6.8.5.4-.1.6-.5.5-.8,0-.2-.1-.3-.1-.5,0-1.1.9-2,2-2,.2,0,.3,0,.5.1.4.1.7-.1.8-.5s-.1-.7-.5-.8c-.3-.1-.5-.1-.8-.1-1.7-.1-3.3,1.4-3.3,3.3Z"/>
    <path class="st2" d="M27.2,35.4v28.6c0,.8.6,1.4,1.4,1.4h16.6c0,.4-.2,2.3-1,3.2-.6.6-1.3,1.1-1.4,1.5h0v.1h0c0,.3.4.5,1.5.5h11.1c1,0,1.4-.1,1.5-.3.4-.3-.6-1-1.3-1.7-.9-.9-1-2.7-1-3.2h16.9c.8,0,1.4-.6,1.4-1.4v-28.7c0-.8-.6-1.3-1.4-1.3H28.6c-.7,0-1.4.5-1.4,1.3ZM49.2,63.2c0-.5.4-.9.9-.9s.9.4.9.9-.4.9-.9.9-.9-.4-.9-.9ZM29.2,35.9h41.8v23.5h-6c-.1.1-.1.2-.2.3l-1.4,1.4c-.5.5-1.2.8-1.9.8s-1.4-.3-1.9-.8l-1.6-1.6h-1.1c-.5.7-1.3,1.1-2.2,1.1-.8,0-1.6-.4-2.1-1.1h-23.4v-23.6Z"/>
    <path class="st2" d="M27.2,35.4v28.6c0,.8.6,1.4,1.4,1.4h16.6c0,.4-.2,2.3-1,3.2-.6.6-1.3,1.1-1.4,1.5h0v.1h0c0,.3.4.5,1.5.5h11.1c1,0,1.4-.1,1.5-.3.4-.3-.6-1-1.3-1.7-.9-.9-1-2.7-1-3.2h16.9c.8,0,1.4-.6,1.4-1.4v-28.7c0-.8-.6-1.3-1.4-1.3H28.6c-.7,0-1.4.5-1.4,1.3ZM49.2,63.2c0-.5.4-.9.9-.9s.9.4.9.9-.4.9-.9.9-.9-.4-.9-.9ZM29.2,35.9h41.8v23.5h-6c-.1.1-.1.2-.2.3l-1.4,1.4c-.5.5-1.2.8-1.9.8s-1.4-.3-1.9-.8l-1.6-1.6h-1.1c-.5.7-1.3,1.1-2.2,1.1-.8,0-1.6-.4-2.1-1.1h-23.4v-23.6Z"/>
    <path class="st1" d="M53.4,58.2l-2.7-9.4c-.1-.4,0-.9.3-1.2s.7-.5,1.1-.5h.4l9.4,2.7c.7.2,1,.8,1,1.3s-.3,1.1-.9,1.3l-2.1.6,3.8,3.8c.3.3.4.6.4,1s-.1.7-.4,1l-1.3,1.3c-.5.5-1.4.5-1.9,0l-3.8-3.8-.7,1.9c-.2.7-.8,1-1.3.9-.5,0-1.1-.3-1.3-.9Z"/>
  </g>
</svg>